<?xml version="1.0" encoding="UTF-8"?>
<svg width="238px" height="49px" viewBox="0 0 238 49" version="1.1" xmlns="http://www.w3.org/2000/svg" xmlns:xlink="http://www.w3.org/1999/xlink">
    <!-- Generator: sketchtool 54.1 (76490) - https://sketchapp.com -->
    <title>662141A2-88EF-49CD-89AC-5B93D2DEAD72</title>
    <desc>Created with sketchtool.</desc>
    <g id="Symbols" stroke="none" stroke-width="1" fill="none" fill-rule="evenodd">
        <g id="Stage+FAILED-Score" transform="translate(-17.000000, 0.000000)">
            <g id="Score-Card" transform="translate(1.000000, 0.000000)">
                <g id="YourScore" transform="translate(2.000000, 0.000000)">
                    <g id="Banner" transform="translate(13.903466, 0.000000)">
                        <path d="M3.3595844,6 L24.0966282,6 C28.5149062,6 32.0966282,9.581722 32.0966282,14 L32.0966299,41.0000086 C32.0966299,45.4182866 28.5149079,49.0000086 24.0966299,49.0000086 L3.3595896,49.0000143 C1.70272875,49.000014 0.359577929,47.6568626 0.35957829,46.0000017 C0.359578404,45.4738099 0.497976791,44.9568734 0.760884466,44.5010694 C5.65131732,36.0225073 8.09653375,30.3554844 8.09653375,27.5000006 C8.09653375,24.6445177 5.6513188,18.9774973 0.760888908,10.4989395 L0.760877949,10.4989458 C-0.0669599905,9.0637199 0.425425271,7.22914414 1.86065121,6.4013062 C2.31645552,6.1383984 2.83339234,6 3.3595844,6 Z M234.833578,6 C235.35977,6 235.876706,6.1383984 236.332511,6.4013062 C237.767737,7.22914414 238.260122,9.0637199 237.432284,10.4989458 L237.432273,10.4989395 C232.541843,18.9774973 230.096628,24.6445177 230.096628,27.5000006 C230.096628,30.3554844 232.541845,36.0225073 237.432277,44.5010694 C237.695185,44.9568734 237.833584,45.4738099 237.833584,46.0000017 C237.833584,47.6568626 236.490433,49.000014 234.833572,49.0000143 L214.096532,49.0000086 C209.678254,49.0000086 206.096532,45.4182866 206.096532,41.0000086 L206.096534,14 C206.096534,9.581722 209.678256,6 214.096534,6 L234.833578,6 Z" id="Combined-Shape-Copy" fill="#856E5A"></path>
                        <path d="M3.3595844,5 L24.0966282,5 C28.5149062,5 32.0966282,8.581722 32.0966282,13 L32.0966299,40.0000086 C32.0966299,44.4182866 28.5149079,48.0000086 24.0966299,48.0000086 L3.3595896,48.0000143 C1.70272875,48.000014 0.359577929,46.6568626 0.35957829,45.0000017 C0.359578404,44.4738099 0.497976791,43.9568734 0.760884466,43.5010694 C5.65131732,35.0225073 8.09653375,29.3554844 8.09653375,26.5000006 C8.09653375,23.6445177 5.6513188,17.9774973 0.760888908,9.49893952 L0.760877949,9.49894584 C-0.0669599905,8.0637199 0.425425271,6.22914414 1.86065121,5.4013062 C2.31645552,5.1383984 2.83339234,5 3.3595844,5 Z M234.833578,5 C235.35977,5 235.876706,5.1383984 236.332511,5.4013062 C237.767737,6.22914414 238.260122,8.0637199 237.432284,9.49894584 L237.432273,9.49893952 C232.541843,17.9774973 230.096628,23.6445177 230.096628,26.5000006 C230.096628,29.3554844 232.541845,35.0225073 237.432277,43.5010694 C237.695185,43.9568734 237.833584,44.4738099 237.833584,45.0000017 C237.833584,46.6568626 236.490433,48.000014 234.833572,48.0000143 L214.096532,48.0000086 C209.678254,48.0000086 206.096532,44.4182866 206.096532,40.0000086 L206.096534,13 C206.096534,8.581722 209.678256,5 214.096534,5 L234.833578,5 Z" id="Combined-Shape" fill="#595552"></path>
                        <path d="M22.0965337,1 L216.096534,1 C220.514812,1 224.096534,4.581722 224.096534,9 L224.096534,39 C224.096534,43.418278 220.514812,47 216.096534,47 L22.0965337,47 C17.6782557,47 14.0965337,43.418278 14.0965337,39 L14.0965337,9 C14.0965337,4.581722 17.6782557,1 22.0965337,1 Z" id="Rectangle-Copy-7" fill="#79624E"></path>
                        <path d="M22,0 L216,0 C220.418278,-8.11624501e-16 224,3.581722 224,8 L224,38 C224,42.418278 220.418278,46 216,46 L22,46 C17.581722,46 14,42.418278 14,38 L14,8 C14,3.581722 17.581722,8.11624501e-16 22,0 Z" id="Rectangle-Copy-4" fill="#6F6963"></path>
                    </g>
                </g>
            </g>
        </g>
    </g>
</svg>